<svg width="132" height="242" viewBox="0 0 132 242" fill="none" xmlns="http://www.w3.org/2000/svg">
    <path
        d="M33.6339 239.129L61.4949 241.061C61.6764 241.075 61.8658 240.988 61.9884 240.845C62.1111 240.703 62.147 240.503 62.0897 240.326C62.0897 240.326 60.6788 234.981 59.0589 229.062C58.635 227.467 58.1847 225.819 57.7282 224.252C57.4079 223.151 57.086 222.071 56.7687 221.062C56.5319 220.324 56.3028 219.616 56.0908 218.95C55.8354 218.19 55.597 217.471 55.3818 216.846C54.7099 214.917 54.2562 213.705 54.2562 213.705C54.2237 213.601 54.126 213.553 54.0329 213.576C53.9398 213.599 53.8808 213.706 53.904 213.799C53.904 213.799 54.1497 215.076 54.5624 217.076C54.7046 217.727 54.8608 218.459 55.0433 219.244C55.1932 219.926 55.3602 220.649 55.5552 221.404C55.8104 222.429 56.0904 223.526 56.3797 224.634C56.8144 226.22 57.2864 227.849 57.7413 229.437C59.0411 233.992 60.2776 238.186 60.7666 239.858L33.6528 238.756C33.5519 238.748 33.465 238.822 33.4572 238.923C33.4493 239.024 33.5237 239.111 33.6246 239.119L33.6339 239.129ZM42.3689 150.205C40.8889 152.018 39.5594 153.852 38.3897 155.719C33.2043 163.96 30.8346 172.785 30.5207 181.526C30.0991 193.09 33.2493 204.514 38.1214 214.277C43.9958 226.025 52.3623 235.339 59.9336 239.61C60.0205 239.668 60.1353 239.626 60.1928 239.539C60.2503 239.452 60.2084 239.338 60.1216 239.28C52.7086 234.93 44.5997 225.565 38.9347 213.864C34.258 204.197 31.2768 192.948 31.7851 181.574C32.1625 173.061 34.5026 164.487 39.59 156.462C40.5609 154.934 41.6217 153.424 42.7912 151.952C43.5429 154.943 44.5213 157.758 45.728 160.378C52.0291 174.077 64.6863 182.486 86.1715 181.082C121.842 178.74 135.778 155.931 130.771 139.411C126.13 124.065 105.067 113.775 69.561 130.191C57.8583 135.612 49.2345 142.146 43.1299 149.29C39.551 132.415 42.4845 110.719 48.9443 89.601C54.0974 72.7645 51.413 52.864 42.286 35.8413C33.7864 20.0138 19.7055 6.68459 1.16154 0.658158C1.06226 0.630156 0.956715 0.682831 0.928708 0.78211C0.900713 0.88138 0.953383 0.986925 1.05265 1.01494C19.4632 7.06142 33.4153 20.3502 41.8079 36.1187C50.8032 53.0094 53.4101 72.7314 48.2509 89.3848C41.5969 110.913 38.6181 133.062 42.4016 150.177L42.3689 150.205ZM43.5102 151.055C44.2882 154.23 45.2944 157.209 46.5909 159.978C52.7775 173.323 65.165 181.418 86.0948 179.98C120.68 177.625 134.43 155.785 129.545 139.782C127.701 133.754 123.202 128.586 116.183 125.687C105.961 121.464 90.4851 122.037 70.1512 131.475C58.2172 137 49.5591 143.713 43.5211 151.045L43.5102 151.055Z"
        fill="#3b4859" fill-rule="evenodd" clip-rule="evenodd" pathLength="1" stroke-dashoffset="0px"
        stroke-dasharray="1px 1px"></path>
</svg>